<svg version="1.1" id="Layer_1" xmlns="http://www.w3.org/2000/svg" xmlns:xlink="http://www.w3.org/1999/xlink" x="0px" y="0px"
	 width="100%" viewBox="0 0 500 500" enable-background="new 0 0 500 500" xml:space="preserve">
<path fill="#FFFFFF" opacity="1.000000" stroke="none" 
	d="
M234.000000,501.000000 
	C156.000015,501.000000 78.500038,501.000000 1.000041,501.000000 
	C1.000028,334.333405 1.000028,167.666779 1.000014,1.000131 
	C167.666565,1.000087 334.333130,1.000087 500.999756,1.000044 
	C500.999847,167.666519 500.999847,334.333038 500.999939,500.999786 
	C412.166656,501.000000 323.333344,501.000000 234.000000,501.000000 
M235.554413,172.809937 
	C235.762939,172.636047 235.913422,172.421463 236.932602,172.022751 
	C282.195587,172.022751 327.458557,172.022751 372.718658,172.022751 
	C372.718658,149.039764 372.718658,126.652122 372.718658,104.000000 
	C370.732483,104.000000 369.087646,104.000000 367.442810,104.000000 
	C294.957581,104.000000 222.472366,103.998894 149.987137,104.006958 
	C148.324570,104.007141 146.662018,104.111122 144.482803,104.112312 
	C144.387405,104.406487 144.292007,104.700668 144.066605,105.924576 
	C144.059280,198.621750 144.051468,291.318909 144.050934,384.016083 
	C144.050934,385.011536 144.145966,386.006989 144.115524,387.515625 
	C144.409332,387.621490 144.703125,387.727356 145.839569,387.975647 
	C149.115082,387.704834 152.389969,387.207947 155.666183,387.199158 
	C180.320663,387.133118 204.975372,387.163147 229.630020,387.163147 
	C231.372620,387.163147 233.115219,387.163116 235.324646,387.163116 
	C235.324646,352.844543 235.324646,319.298737 235.324646,285.446564 
	C237.608841,285.446564 239.423523,285.446564 241.238220,285.446564 
	C277.054077,285.446533 312.870239,285.382263 348.685455,285.533447 
	C352.835693,285.550934 354.031219,284.391296 353.978912,280.217896 
	C353.753540,262.229523 353.708374,244.233826 354.000763,226.247360 
	C354.077148,221.546356 352.683777,220.430664 348.150360,220.454971 
	C314.334503,220.636154 280.517181,220.553421 246.700348,220.553406 
	C242.923416,220.553406 239.146484,220.553406 235.208527,220.553406 
	C235.208527,204.273804 235.208527,188.639038 235.554413,172.809937 
z"/>
<path fill="#FF3131" opacity="1.000000" stroke="none" 
	d="
M144.999451,104.166687 
	C146.662018,104.111122 148.324570,104.007141 149.987137,104.006958 
	C222.472366,103.998894 294.957581,104.000000 367.442810,104.000000 
	C369.087646,104.000000 370.732483,104.000000 372.718658,104.000000 
	C372.718658,126.652122 372.718658,149.039764 372.718658,172.022751 
	C327.458557,172.022751 282.195587,172.022751 236.209381,172.069794 
	C235.393616,172.412643 235.301071,172.708466 235.208527,173.004272 
	C235.208527,188.639038 235.208527,204.273804 235.208527,220.553406 
	C239.146484,220.553406 242.923416,220.553406 246.700348,220.553406 
	C280.517181,220.553421 314.334503,220.636154 348.150360,220.454971 
	C352.683777,220.430664 354.077148,221.546356 354.000763,226.247360 
	C353.708374,244.233826 353.753540,262.229523 353.978912,280.217896 
	C354.031219,284.391296 352.835693,285.550934 348.685455,285.533447 
	C312.870239,285.382263 277.054077,285.446533 241.238220,285.446564 
	C239.423523,285.446564 237.608841,285.446564 235.324646,285.446564 
	C235.324646,319.298737 235.324646,352.844543 235.324646,387.163116 
	C233.115219,387.163116 231.372620,387.163147 229.630020,387.163147 
	C204.975372,387.163147 180.320663,387.133118 155.666183,387.199158 
	C152.389969,387.207947 149.115082,387.704834 145.327118,387.728760 
	C144.657562,387.259033 144.451553,387.099213 144.196625,387.002441 
	C144.145966,386.006989 144.050934,385.011536 144.050934,384.016083 
	C144.051468,291.318909 144.059280,198.621750 144.304855,105.364143 
	C144.754715,104.634003 144.906830,104.421661 144.999451,104.166687 
z"/>
<path fill="#FF4242" opacity="1.000000" stroke="none" 
	d="
M144.741119,104.139496 
	C144.906830,104.421661 144.754715,104.634003 144.369873,104.899277 
	C144.292007,104.700668 144.387405,104.406487 144.741119,104.139496 
z"/>
<path fill="#FFE8E8" opacity="1.000000" stroke="none" 
	d="
M235.381470,172.907104 
	C235.301071,172.708466 235.393616,172.412643 235.746002,172.141510 
	C235.913422,172.421463 235.762939,172.636047 235.381470,172.907104 
z"/>
<path fill="#FF4242" opacity="1.000000" stroke="none" 
	d="
M144.156067,387.259033 
	C144.451553,387.099213 144.657562,387.259033 144.905792,387.657532 
	C144.703125,387.727356 144.409332,387.621490 144.156067,387.259033 
z"/>
</svg>